<mxfile host="app.diagrams.net" modified="2022-02-17T18:14:12.513Z" agent="5.0 (Windows)" etag="9jsgkXMfuG5WiSCjBp0D" version="15.5.2" type="github">
  <diagram id="4rU8gYA564SKTLNEH4Lg" name="Page-1">
    <mxGraphModel dx="782" dy="364" grid="1" gridSize="10" guides="1" tooltips="1" connect="1" arrows="1" fold="1" page="1" pageScale="1" pageWidth="827" pageHeight="1169" math="0" shadow="0">
      <root>
        <mxCell id="0" />
        <mxCell id="1" parent="0" />
        <mxCell id="SYhHrqKnr2Nzoqkczw36-1" value="" style="sketch=0;pointerEvents=1;shadow=0;dashed=0;html=1;strokeColor=none;fillColor=#505050;labelPosition=center;verticalLabelPosition=bottom;verticalAlign=top;outlineConnect=0;align=center;shape=mxgraph.office.services.excel_services;" vertex="1" parent="1">
          <mxGeometry x="384" y="100" width="60" height="49" as="geometry" />
        </mxCell>
        <mxCell id="SYhHrqKnr2Nzoqkczw36-2" value="" style="sketch=0;html=1;aspect=fixed;strokeColor=none;shadow=0;align=center;verticalAlign=top;fillColor=#3B8DF1;shape=mxgraph.gcp2.cloud_server" vertex="1" parent="1">
          <mxGeometry x="510.25" y="190" width="100" height="89" as="geometry" />
        </mxCell>
        <mxCell id="SYhHrqKnr2Nzoqkczw36-3" value="" style="outlineConnect=0;dashed=0;verticalLabelPosition=bottom;verticalAlign=top;align=center;html=1;shape=mxgraph.aws3.users;fillColor=#D2D3D3;gradientColor=none;" vertex="1" parent="1">
          <mxGeometry x="414" y="250" width="66" height="63" as="geometry" />
        </mxCell>
        <mxCell id="SYhHrqKnr2Nzoqkczw36-4" value="" style="outlineConnect=0;dashed=0;verticalLabelPosition=bottom;verticalAlign=top;align=center;html=1;shape=mxgraph.aws3.workspaces;fillColor=#D16A28;gradientColor=#F58435;gradientDirection=north;" vertex="1" parent="1">
          <mxGeometry x="230" y="40" width="82.5" height="94.5" as="geometry" />
        </mxCell>
        <mxCell id="SYhHrqKnr2Nzoqkczw36-5" value="" style="outlineConnect=0;dashed=0;verticalLabelPosition=bottom;verticalAlign=top;align=center;html=1;shape=mxgraph.aws3.cart;fillColor=#5294CF;gradientColor=none;" vertex="1" parent="1">
          <mxGeometry x="510.25" y="20.5" width="79.5" height="79.5" as="geometry" />
        </mxCell>
        <mxCell id="SYhHrqKnr2Nzoqkczw36-6" value="" style="outlineConnect=0;dashed=0;verticalLabelPosition=bottom;verticalAlign=top;align=center;html=1;shape=mxgraph.aws3.long_term_security_credential;fillColor=#ffffff;gradientColor=none;" vertex="1" parent="1">
          <mxGeometry x="370" y="170" width="60" height="48" as="geometry" />
        </mxCell>
        <mxCell id="SYhHrqKnr2Nzoqkczw36-8" value="" style="sketch=0;outlineConnect=0;fontColor=#232F3E;gradientColor=none;fillColor=#6CAE3E;strokeColor=none;dashed=0;verticalLabelPosition=bottom;verticalAlign=top;align=center;html=1;fontSize=12;fontStyle=0;aspect=fixed;pointerEvents=1;shape=mxgraph.aws4.iot_analytics_data_store;" vertex="1" parent="1">
          <mxGeometry x="20" y="187.75" width="49.67" height="71.75" as="geometry" />
        </mxCell>
        <mxCell id="SYhHrqKnr2Nzoqkczw36-9" value="" style="sketch=0;outlineConnect=0;fontColor=#232F3E;gradientColor=none;fillColor=#6CAE3E;strokeColor=none;dashed=0;verticalLabelPosition=bottom;verticalAlign=top;align=center;html=1;fontSize=12;fontStyle=0;aspect=fixed;pointerEvents=1;shape=mxgraph.aws4.iot_analytics_data_store;" vertex="1" parent="1">
          <mxGeometry x="80" y="190" width="49.67" height="71.75" as="geometry" />
        </mxCell>
        <mxCell id="SYhHrqKnr2Nzoqkczw36-10" value="" style="sketch=0;outlineConnect=0;fontColor=#232F3E;gradientColor=none;fillColor=#6CAE3E;strokeColor=none;dashed=0;verticalLabelPosition=bottom;verticalAlign=top;align=center;html=1;fontSize=12;fontStyle=0;aspect=fixed;pointerEvents=1;shape=mxgraph.aws4.iot_analytics_data_store;" vertex="1" parent="1">
          <mxGeometry x="140.93999999999997" y="187.75" width="49.67" height="71.75" as="geometry" />
        </mxCell>
        <mxCell id="SYhHrqKnr2Nzoqkczw36-12" value="" style="sketch=0;aspect=fixed;html=1;points=[];align=center;image;fontSize=12;image=img/lib/mscae/Software_as_a_Service.svg;" vertex="1" parent="1">
          <mxGeometry x="660" y="209.5" width="50" height="50" as="geometry" />
        </mxCell>
        <mxCell id="SYhHrqKnr2Nzoqkczw36-16" value="" style="verticalLabelPosition=bottom;sketch=0;aspect=fixed;html=1;verticalAlign=top;strokeColor=none;align=center;outlineConnect=0;shape=mxgraph.citrix.desktop;" vertex="1" parent="1">
          <mxGeometry x="60.34" y="11.25" width="80.6" height="88.75" as="geometry" />
        </mxCell>
      </root>
    </mxGraphModel>
  </diagram>
</mxfile>
